<svg width="18" height="18" viewBox="0 0 18 18" fill="none" xmlns="http://www.w3.org/2000/svg">
<path d="M9 0C4.0374 0 0 4.0374 0 9C0 13.9626 4.0374 18 9 18C9.2732 18 9.4946 17.7786 9.4946 17.5054C9.4946 17.2322 9.2732 17.011 9 17.011C4.5828 17.011 0.989 13.4174 0.989 9C0.989 4.5828 4.5828 0.989 9 0.989C13.4174 0.989 17.011 4.5828 17.011 9C17.0112 10.8206 16.68 13.0104 15.104 13.1236C13.7822 13.1154 13.112 12.1046 13.112 10.1184V7.8732C13.112 7.6 12.8906 7.3786 12.6174 7.3786C12.3442 7.3786 12.1228 7.6 12.1228 7.8732V10.1182C12.1228 11.2214 11.2254 12.1188 10.1222 12.1188H7.8774C6.7744 12.1188 5.877 11.2214 5.877 10.1182V7.8732C5.877 6.7702 6.7744 5.8728 7.8774 5.8728H10.1224C10.3956 5.8728 10.617 5.6514 10.617 5.3782C10.617 5.105 10.3956 4.8836 10.1224 4.8836H7.8774C6.229 4.8836 4.888 6.2246 4.888 7.873V10.118C4.888 11.7664 6.229 13.1076 7.8774 13.1076H10.1224C11.0302 13.1076 11.8432 12.6996 12.392 12.0588C12.9868 13.8752 14.4168 14.1122 15.1198 14.1122C15.1302 14.1122 15.1404 14.1118 15.151 14.1112C16.2152 14.0446 18.0004 13.2912 18 9C18 4.0374 13.9626 0 9 0Z" fill="white"/>
</svg>
