<svg width="40" height="27" viewBox="0 0 40 27" fill="none" xmlns="http://www.w3.org/2000/svg">
<path d="M36.9453 7.0224H34.452C33.1299 5.76957 31.3456 5 29.3847 5C27.0774 5 25.0145 6.0658 23.6616 7.73066C21.527 6.03992 18.4765 6.03704 16.3383 7.73066C14.9854 6.0658 12.9226 5 10.6151 5C8.6543 5 6.86998 5.76964 5.5479 7.0224H3.05469C2.47222 7.0224 2 7.49462 2 8.07709C2 8.65955 2.47222 9.13177 3.05469 9.13177H3.99434C3.51341 10.1105 3.2427 11.2104 3.2427 12.3725C3.2427 16.4377 6.54999 19.745 10.6152 19.745C14.6804 19.745 17.9877 16.4377 17.9877 12.3725C17.9877 11.3803 17.7901 10.4335 17.4332 9.56862C18.8796 8.23944 21.1184 8.23761 22.5668 9.56862C22.2099 10.4335 22.0124 11.3803 22.0124 12.3725C22.0124 16.4377 25.3197 19.745 29.3849 19.745C33.4501 19.745 36.7574 16.4377 36.7574 12.3725C36.7574 11.2104 36.4867 10.1105 36.0057 9.13177H36.9453C37.5278 9.13177 38 8.65955 38 8.07709C38 7.49462 37.5278 7.0224 36.9453 7.0224ZM10.6152 17.6356C7.7131 17.6356 5.35208 15.2746 5.35208 12.3725C5.35208 9.4704 7.7131 7.10938 10.6152 7.10938C13.5173 7.10938 15.8783 9.4704 15.8783 12.3725C15.8783 15.2746 13.5173 17.6356 10.6152 17.6356ZM29.3848 17.6356C26.4827 17.6356 24.1217 15.2746 24.1217 12.3725C24.1217 9.4704 26.4827 7.10938 29.3848 7.10938C32.2869 7.10938 34.6479 9.4704 34.6479 12.3725C34.6479 15.2746 32.2869 17.6356 29.3848 17.6356Z" fill="#121212"/>
</svg>
