<svg width="40" height="40" viewBox="0 0 40 40" fill="none" xmlns="http://www.w3.org/2000/svg">
<path d="M19.9999 18.8891C21.5382 18.8891 23.042 18.4329 24.321 17.5783C25.6001 16.7236 26.597 15.5089 27.1857 14.0877C27.7744 12.6665 27.9284 11.1026 27.6283 9.59391C27.3282 8.08517 26.5874 6.6993 25.4997 5.61156C24.4119 4.52382 23.0261 3.78305 21.5173 3.48295C20.0086 3.18284 18.4447 3.33687 17.0235 3.92555C15.6023 4.51423 14.3876 5.51113 13.533 6.79018C12.6783 8.06922 12.2222 9.57298 12.2222 11.1113C12.2222 13.1741 13.0416 15.1524 14.5002 16.611C15.9588 18.0696 17.9372 18.8891 19.9999 18.8891ZM19.9999 5.55572C21.0987 5.55572 22.1728 5.88155 23.0864 6.492C24.0001 7.10245 24.7121 7.97011 25.1326 8.98526C25.5531 10.0004 25.6631 11.1174 25.4488 12.1951C25.2344 13.2728 24.7053 14.2627 23.9283 15.0396C23.1514 15.8166 22.1615 16.3457 21.0838 16.5601C20.0061 16.7744 18.8891 16.6644 17.8739 16.2439C16.8588 15.8235 15.9911 15.1114 15.3807 14.1978C14.7702 13.2842 14.4444 12.2101 14.4444 11.1113C14.4444 9.63785 15.0297 8.22478 16.0716 7.18291C17.1134 6.14104 18.5265 5.55572 19.9999 5.55572Z" fill="#121212"/>
<path d="M33.8557 27.0779C32.0738 25.1946 29.9265 23.6944 27.5452 22.6692C25.1638 21.644 22.5983 21.1152 20.0057 21.1152C17.413 21.1152 14.8475 21.644 12.4662 22.6692C10.0848 23.6944 7.93755 25.1946 6.15567 27.0779C5.76935 27.4905 5.55479 28.0349 5.55567 28.6001V34.4446C5.55567 35.0339 5.78979 35.5992 6.20654 36.0159C6.62329 36.4326 7.18852 36.6668 7.77789 36.6668H32.2223C32.8117 36.6668 33.3769 36.4326 33.7937 36.0159C34.2104 35.5992 34.4446 35.0339 34.4446 34.4446V28.6001C34.4485 28.0364 34.2379 27.4922 33.8557 27.0779ZM32.2223 34.4446H7.77789V28.589C9.35259 26.9309 11.2482 25.6105 13.3494 24.7082C15.4506 23.8059 17.7134 23.3406 20.0001 23.3406C22.2868 23.3406 24.5496 23.8059 26.6508 24.7082C28.752 25.6105 30.6476 26.9309 32.2223 28.589V34.4446Z" fill="#121212"/>
</svg>
